# xmcd CD database file
#
# Track frame offsets:
#	182
#	21877
#	46090
#	86480
#	99807
#	139392
#	167210
#	180125
#	211177
#	241190
#	253940
#
# Disc length: 3746 seconds
#
# Revision: 0
# Processed by: cddbd v1.4PL0 Copyright (c) Steve Scherf et al.
# Submitted via: CDex 1.50Beta7
#
DISCID=840ea00b
DTITLE=Alvin Queen Quintet - I´m Back
DYEAR=1992
DGENRE=Jazz
TTITLE0=The Queen
TTITLE1=My Romance
TTITLE2=Sketch A
TTITLE3=Much Elvin And Max
TTITLE4=Needed Space
TTITLE5=Slammin´
TTITLE6=Evolution Of The Drum
TTITLE7=Beloved
TTITLE8=Steppin´
TTITLE9=Remo´s Swift Heads
TTITLE10=Kurt and John
EXTD=YEAR: 1992
EXTT0=
EXTT1=
EXTT2=
EXTT3=
EXTT4=
EXTT5=
EXTT6=
EXTT7=
EXTT8=
EXTT9=
EXTT10=
PLAYORDER=
